name C:\Users\r0593348\3dpredictsim\Results\batch_windlass\Pog_s1_tmt_bCst_d05_k1000_WL40_ig24_act_TTC.mot
datacolumns 128
datarows 4
range 1.80260316 1.83865522
endheader
time	pelvis_tilt	pelvis_list	pelvis_rotation	pelvis_tx	pelvis_ty	pelvis_tz	hip_flexion_l	hip_adduction_l	hip_rotation_l	hip_flexion_r	hip_adduction_r	hip_rotation_r	knee_angle_l	knee_angle_r	ankle_angle_l	ankle_angle_r	subtalar_angle_l	subtalar_angle_r	tmt_angle_l	tmt_angle_r	mtp_angle_l	mtp_angle_r	lumbar_extension	lumbar_bending	lumbar_rotation	arm_flex_l	arm_add_l	arm_rot_l	arm_flex_r	arm_add_r	arm_rot_r	elbow_flex_l	elbow_flex_r	pro_sup_l	pro_sup_r	glut_med1_l/activation	glut_med2_l/activation	glut_med3_l/activation	glut_min1_l/activation	glut_min2_l/activation	glut_min3_l/activation	semimem_l/activation	semiten_l/activation	bifemlh_l/activation	bifemsh_l/activation	sar_l/activation	add_long_l/activation	add_brev_l/activation	add_mag1_l/activation	add_mag2_l/activation	add_mag3_l/activation	tfl_l/activation	pect_l/activation	grac_l/activation	glut_max1_l/activation	glut_max2_l/activation	glut_max3_l/activation	iliacus_l/activation	psoas_l/activation	quad_fem_l/activation	gem_l/activation	peri_l/activation	rect_fem_l/activation	vas_med_l/activation	vas_int_l/activation	vas_lat_l/activation	med_gas_l/activation	lat_gas_l/activation	soleus_l/activation	tib_post_l/activation	flex_dig_l/activation	flex_hal_l/activation	tib_ant_l/activation	per_brev_l/activation	per_long_l/activation	per_tert_l/activation	ext_dig_l/activation	ext_hal_l/activation	ercspn_l/activation	intobl_l/activation	extobl_l/activation	glut_med1_r/activation	glut_med2_r/activation	glut_med3_r/activation	glut_min1_r/activation	glut_min2_r/activation	glut_min3_r/activation	semimem_r/activation	semiten_r/activation	bifemlh_r/activation	bifemsh_r/activation	sar_r/activation	add_long_r/activation	add_brev_r/activation	add_mag1_r/activation	add_mag2_r/activation	add_mag3_r/activation	tfl_r/activation	pect_r/activation	grac_r/activation	glut_max1_r/activation	glut_max2_r/activation	glut_max3_r/activation	iliacus_r/activation	psoas_r/activation	quad_fem_r/activation	gem_r/activation	peri_r/activation	rect_fem_r/activation	vas_med_r/activation	vas_int_r/activation	vas_lat_r/activation	med_gas_r/activation	lat_gas_r/activation	soleus_r/activation	tib_post_r/activation	flex_dig_r/activation	flex_hal_r/activation	tib_ant_r/activation	per_brev_r/activation	per_long_r/activation	per_tert_r/activation	ext_dig_r/activation	ext_hal_r/activation	ercspn_r/activation	intobl_r/activation	extobl_r/activation	
          1.80260316	         -2.92774382	          0.76077681	         -7.71865018	          2.25325395	          0.85905446	          0.00206365	         33.20017951	         -0.10076782	         -2.44612879	        -15.83643811	         -2.15945632	          7.39476781	        -19.27184039	        -15.84117627	          6.71985460	         -5.13192396	          5.09302451	         17.75130857	          0.61398285	        -14.95878233	         -1.52313279	         35.53219211	          0.39203543	          1.51474617	          2.91838842	        -14.99902731	        -13.53350592	          7.03872973	          2.58719545	        -13.52385014	         16.62555681	         20.29961519	         44.86597250	         86.51662706	         86.51662706	          0.05000165	          0.05028707	          0.06001407	          0.05000392	          0.05000435	          0.05000631	          0.06757865	          0.06001555	          0.09990638	          0.06001515	          0.05000190	          0.06257550	          0.09884096	          0.15685029	          0.11720397	          0.08685973	          0.06001434	          0.05001107	          0.07190411	          0.06001416	          0.06001461	          0.06880647	          0.06365446	          0.06856999	          0.20082210	          0.05000122	          0.05810536	          0.05000321	          0.09418418	          0.11194603	          0.09314764	          0.08086801	          0.07203553	          0.06445589	          0.06001479	          0.07203061	          0.07203464	          0.46662638	          0.27801478	          0.18551017	          0.05082579	          0.55438247	          0.14367963	          0.05000008	          0.11544228	          0.10666129	          0.16441661	          0.05371737	          0.05000020	          0.19882589	          0.12407859	          0.05427841	          0.05001584	          0.05000113	          0.05000104	          0.05000035	          0.07225208	          0.10153066	          0.09196028	          0.05788949	          0.05022010	          0.06001910	          0.15865126	          0.05000409	          0.05000117	          0.05001332	          0.05001343	          0.05002780	          0.26259001	          0.35017882	          0.05000037	          0.05000156	          0.05000060	          0.18490585	          0.07949463	          0.07622321	          0.06003077	          0.13623520	          0.18342666	          0.05000005	          0.11499798	          0.11224938	          0.13196471	          0.36775120	          0.44036098	          0.32865557	          0.66214698	          0.47279453	          0.17750619	          0.05000003	          0.06544978	          0.05260326	
          1.81462052	         -2.91843136	          0.68643896	         -7.85513192	          2.27268667	          0.85781972	          0.00173842	         32.56554736	          0.12949227	         -2.24082674	        -16.02755513	         -2.34221342	          7.18022883	        -19.10003701	        -17.15898529	          6.09647456	         -7.46438161	          4.70252202	         18.18082554	          0.74561328	        -14.89930033	         -1.61559918	         35.00154260	          0.63974154	          1.33009249	          3.01855198	        -16.37391327	        -13.52334234	          7.00578881	          2.11834633	        -13.58701813	         16.89393274	         20.23735604	         46.01408119	         86.51662706	         86.51662706	          0.05733919	          0.05000126	          0.05000048	          0.06001446	          0.06001253	          0.05000525	          0.05630214	          0.05000107	          0.08323582	          0.05000075	          0.05341849	          0.08646295	          0.10378729	          0.13068832	          0.15291061	          0.13131045	          0.05000081	          0.08511813	          0.05990622	          0.05000067	          0.05000052	          0.17697392	          0.06001471	          0.05712937	          0.16731213	          0.21007896	          0.19537383	          0.07203497	          0.25354344	          0.24654311	          0.21277884	          0.06737378	          0.06001516	          0.05370031	          0.05000030	          0.06001128	          0.06001457	          0.70387156	          0.25619369	          0.15455475	          0.47301951	          0.73333333	          0.42524760	          0.05000022	          0.09617875	          0.08886301	          0.13698108	          0.05000142	          0.06491845	          0.16564864	          0.10337422	          0.07202605	          0.05000953	          0.05000635	          0.05000768	          0.05142627	          0.06019720	          0.14513695	          0.26171212	          0.11419605	          0.05007912	          0.05000468	          0.13217771	          0.08695880	          0.07422553	          0.05000824	          0.05000407	          0.05000265	          0.21877239	          0.29174552	          0.07203597	          0.05031408	          0.06144048	          0.15405110	          0.06622969	          0.06350417	          0.05001369	          0.11350199	          0.15281875	          0.05000002	          0.09580859	          0.09351888	          0.10994421	          0.43557291	          0.38702582	          0.29765032	          0.63985788	          0.64299282	          0.29945351	          0.05000089	          0.06677197	          0.07203520	
          1.82663787	         -2.90287202	          0.62748849	         -7.95586881	          2.29217960	          0.85593937	          0.00141791	         31.78484291	          0.38183152	         -1.96234618	        -16.02615850	         -2.49184079	          6.97737707	        -19.44409373	        -18.98130024	          5.59243234	         -9.21697319	          4.28432849	         18.51729824	          0.73864490	        -14.07877714	         -1.44285963	         32.57420268	          0.88043694	          1.11617854	          3.10071183	        -17.66653214	        -13.53679189	          7.13147417	          1.60744672	        -13.66393411	         17.08351537	         20.03422142	         47.16198018	         86.51662706	         86.51662706	          0.18568008	          0.05000175	          0.18750022	          0.05000039	          0.05000043	          0.05000202	          0.05000039	          0.05000052	          0.06934664	          0.05000018	          0.05000064	          0.07203531	          0.08646875	          0.22312974	          0.22204034	          0.14116279	          0.05000219	          0.07091653	          0.05000121	          0.14375117	          0.13222748	          0.14746614	          0.05000043	          0.05000069	          0.27921078	          0.17502382	          0.16277253	          0.06001481	          0.28430741	          0.27816835	          0.24092246	          0.05998723	          0.05000104	          0.05000008	          0.05000005	          0.05000167	          0.05000107	          0.58708961	          0.24829077	          0.14278204	          0.69209716	          0.64809874	          0.35428783	          0.05000005	          0.08012967	          0.07403468	          0.11412357	          0.06001403	          0.06001447	          0.13800761	          0.08612470	          0.06001229	          0.05000775	          0.05000052	          0.05000179	          0.05000018	          0.05015291	          0.17392365	          0.35037924	          0.23237316	          0.11618733	          0.14355964	          0.11012172	          0.07245016	          0.06184102	          0.05149872	          0.06000984	          0.06001640	          0.18226648	          0.24306299	          0.06001608	          0.06001525	          0.06001438	          0.12834500	          0.07203386	          0.07203399	          0.06306327	          0.09456221	          0.12731832	          0.05050189	          0.07982130	          0.07791394	          0.09159825	          0.61898660	          0.37724079	          0.26434657	          0.53308683	          0.53569834	          0.24948456	          0.08345726	          0.05984641	          0.06001496	
          1.83865522	         -2.88182094	          0.58025875	         -8.01338674	          2.31158394	          0.85362551	          0.00109743	         30.83657085	          0.62792196	         -1.64953115	        -15.83828665	         -2.60937379	          6.81804070	        -20.07200656	        -21.27691689	          5.34784547	        -10.42288953	          3.81150816	         18.83247494	          0.15987928	        -12.48888627	         -1.22783032	         28.31765941	          1.10799907	          0.88135342	          3.16411778	        -18.82755131	        -13.56900523	          7.43623826	          1.08082204	        -13.74230294	         17.19827471	         19.65174016	         48.25966273	         86.51662706	         86.51662706	          0.28431491	          0.40140583	          0.54890080	          0.36846040	          0.25389791	          0.47255952	          0.06166001	          0.07667292	          0.07203459	          0.07203276	          0.05996311	          0.06001514	          0.07204008	          0.18589684	          0.18498940	          0.14155667	          0.05000060	          0.06001315	          0.07203556	          0.29977398	          0.22221931	          0.16885757	          0.05284662	          0.05000101	          0.23261987	          0.14582129	          0.36144241	          0.05000034	          0.31839976	          0.32668591	          0.28262607	          0.05000006	          0.05000017	          0.05000003	          0.05735381	          0.05000096	          0.05000103	          0.77075242	          0.20685916	          0.11895638	          0.57661041	          0.70998776	          0.51150535	          0.06604076	          0.06675867	          0.06168072	          0.24717342	          0.05000029	          0.05000014	          0.11499256	          0.07175375	          0.05000067	          0.05585384	          0.05444183	          0.05830055	          0.05000521	          0.05650042	          0.15320347	          0.29191349	          0.19359826	          0.09680082	          0.11960489	          0.09174623	          0.06036351	          0.05153321	          0.05000247	          0.05000187	          0.05000235	          0.15185234	          0.24468770	          0.05000147	          0.05000132	          0.05000030	          0.10692841	          0.06001381	          0.06001392	          0.05254011	          0.07878288	          0.10607309	          0.05000014	          0.06650186	          0.06491317	          0.07631375	          0.54162634	          0.31429173	          0.22023581	          0.45903192	          0.74222013	          0.56612398	          0.11783543	          0.05000002	          0.05000052	
